<svg width="800" height="300" viewBox="0 0 800 300" fill="none" xmlns="http://www.w3.org/2000/svg">
<rect width="800" height="300" fill="white"/>
<rect x="206.5" y="95.5" width="109" height="109" rx="54.5" fill="white" stroke="black"/>
<rect x="276" y="110" width="20" height="20" rx="10" fill="white" fill-opacity="0.31"/>
<rect x="276" y="110" width="20" height="20" rx="10" fill="black" fill-opacity="0.31"/>
<rect x="288" y="137" width="8" height="8" rx="4" fill="white" fill-opacity="0.31"/>
<rect x="288" y="137" width="8" height="8" rx="4" fill="black" fill-opacity="0.31"/>
<path d="M339.68 143V125.72H346.664C346.832 125.72 347.04 125.728 347.288 125.744C347.536 125.752 347.772 125.776 347.996 125.816C348.956 125.968 349.756 126.296 350.396 126.8C351.044 127.304 351.528 127.94 351.848 128.708C352.168 129.476 352.328 130.324 352.328 131.252C352.328 132.628 351.976 133.816 351.272 134.816C350.568 135.808 349.512 136.428 348.104 136.676L347.084 136.796H342.188V143H339.68ZM349.784 143L346.376 135.968L348.908 135.32L352.652 143H349.784ZM342.188 134.42H346.568C346.728 134.42 346.904 134.412 347.096 134.396C347.296 134.38 347.484 134.352 347.66 134.312C348.172 134.192 348.584 133.972 348.896 133.652C349.208 133.324 349.432 132.948 349.568 132.524C349.704 132.1 349.772 131.676 349.772 131.252C349.772 130.828 349.704 130.408 349.568 129.992C349.432 129.568 349.208 129.196 348.896 128.876C348.584 128.548 348.172 128.324 347.66 128.204C347.484 128.156 347.296 128.124 347.096 128.108C346.904 128.092 346.728 128.084 346.568 128.084H342.188V134.42ZM361.037 143.36C359.749 143.36 358.617 143.08 357.641 142.52C356.673 141.952 355.917 141.164 355.373 140.156C354.837 139.14 354.569 137.964 354.569 136.628C354.569 135.212 354.833 133.984 355.361 132.944C355.897 131.904 356.641 131.1 357.593 130.532C358.545 129.964 359.653 129.68 360.917 129.68C362.237 129.68 363.361 129.988 364.289 130.604C365.217 131.212 365.909 132.08 366.365 133.208C366.829 134.336 367.013 135.676 366.917 137.228H364.409V136.316C364.393 134.812 364.105 133.7 363.545 132.98C362.993 132.26 362.149 131.9 361.013 131.9C359.757 131.9 358.813 132.296 358.181 133.088C357.549 133.88 357.233 135.024 357.233 136.52C357.233 137.944 357.549 139.048 358.181 139.832C358.813 140.608 359.725 140.996 360.917 140.996C361.701 140.996 362.377 140.82 362.945 140.468C363.521 140.108 363.969 139.596 364.289 138.932L366.749 139.712C366.245 140.872 365.481 141.772 364.457 142.412C363.433 143.044 362.293 143.36 361.037 143.36ZM356.417 137.228V135.272H365.669V137.228H356.417ZM373.035 143.36C372.075 143.36 371.271 143.184 370.623 142.832C369.975 142.472 369.483 142 369.147 141.416C368.819 140.824 368.655 140.176 368.655 139.472C368.655 138.816 368.771 138.24 369.003 137.744C369.235 137.248 369.579 136.828 370.035 136.484C370.491 136.132 371.051 135.848 371.715 135.632C372.291 135.464 372.943 135.316 373.671 135.188C374.399 135.06 375.163 134.94 375.963 134.828C376.771 134.716 377.571 134.604 378.363 134.492L377.451 134.996C377.467 133.98 377.251 133.228 376.803 132.74C376.363 132.244 375.603 131.996 374.523 131.996C373.843 131.996 373.219 132.156 372.651 132.476C372.083 132.788 371.687 133.308 371.463 134.036L369.123 133.316C369.443 132.204 370.051 131.32 370.947 130.664C371.851 130.008 373.051 129.68 374.547 129.68C375.707 129.68 376.715 129.88 377.571 130.28C378.435 130.672 379.067 131.296 379.467 132.152C379.675 132.576 379.803 133.024 379.851 133.496C379.899 133.968 379.923 134.476 379.923 135.02V143H377.703V140.036L378.135 140.42C377.599 141.412 376.915 142.152 376.083 142.64C375.259 143.12 374.243 143.36 373.035 143.36ZM373.479 141.308C374.191 141.308 374.803 141.184 375.315 140.936C375.827 140.68 376.239 140.356 376.551 139.964C376.863 139.572 377.067 139.164 377.163 138.74C377.299 138.356 377.375 137.924 377.391 137.444C377.415 136.964 377.427 136.58 377.427 136.292L378.243 136.592C377.451 136.712 376.731 136.82 376.083 136.916C375.435 137.012 374.847 137.108 374.319 137.204C373.799 137.292 373.335 137.4 372.927 137.528C372.583 137.648 372.275 137.792 372.003 137.96C371.739 138.128 371.527 138.332 371.367 138.572C371.215 138.812 371.139 139.104 371.139 139.448C371.139 139.784 371.223 140.096 371.391 140.384C371.559 140.664 371.815 140.888 372.159 141.056C372.503 141.224 372.943 141.308 373.479 141.308ZM388.583 143.36C387.255 143.36 386.127 143.064 385.199 142.472C384.271 141.88 383.559 141.068 383.063 140.036C382.575 139.004 382.327 137.832 382.319 136.52C382.327 135.184 382.583 134.004 383.087 132.98C383.591 131.948 384.311 131.14 385.247 130.556C386.183 129.972 387.307 129.68 388.619 129.68C390.035 129.68 391.243 130.032 392.243 130.736C393.251 131.44 393.915 132.404 394.235 133.628L391.739 134.348C391.491 133.62 391.083 133.056 390.515 132.656C389.955 132.248 389.311 132.044 388.583 132.044C387.759 132.044 387.083 132.24 386.555 132.632C386.027 133.016 385.635 133.544 385.379 134.216C385.123 134.888 384.991 135.656 384.983 136.52C384.991 137.856 385.295 138.936 385.895 139.76C386.503 140.584 387.399 140.996 388.583 140.996C389.391 140.996 390.043 140.812 390.539 140.444C391.043 140.068 391.427 139.532 391.691 138.836L394.235 139.436C393.811 140.7 393.111 141.672 392.135 142.352C391.159 143.024 389.975 143.36 388.583 143.36ZM404.096 143C403.28 143.16 402.48 143.228 401.696 143.204C400.912 143.18 400.212 143.028 399.596 142.748C398.98 142.468 398.516 142.028 398.204 141.428C397.924 140.892 397.772 140.348 397.748 139.796C397.732 139.236 397.724 138.604 397.724 137.9V126.44H400.244V137.78C400.244 138.3 400.248 138.752 400.256 139.136C400.272 139.52 400.356 139.844 400.508 140.108C400.796 140.604 401.252 140.888 401.876 140.96C402.508 141.024 403.248 140.996 404.096 140.876V143ZM395.24 132.056V130.04H404.096V132.056H395.24ZM411.633 143V125.72H418.617C418.785 125.72 418.993 125.728 419.241 125.744C419.489 125.752 419.725 125.776 419.949 125.816C420.909 125.968 421.709 126.296 422.349 126.8C422.997 127.304 423.481 127.94 423.801 128.708C424.121 129.476 424.281 130.324 424.281 131.252C424.281 132.188 424.121 133.04 423.801 133.808C423.481 134.576 422.997 135.212 422.349 135.716C421.709 136.22 420.909 136.548 419.949 136.7C419.725 136.732 419.485 136.756 419.229 136.772C418.981 136.788 418.777 136.796 418.617 136.796H414.141V143H411.633ZM414.141 134.42H418.521C418.681 134.42 418.857 134.412 419.049 134.396C419.249 134.38 419.437 134.352 419.613 134.312C420.125 134.192 420.537 133.972 420.849 133.652C421.161 133.324 421.385 132.948 421.521 132.524C421.657 132.1 421.725 131.676 421.725 131.252C421.725 130.828 421.657 130.408 421.521 129.992C421.385 129.568 421.161 129.196 420.849 128.876C420.537 128.548 420.125 128.324 419.613 128.204C419.437 128.156 419.249 128.124 419.049 128.108C418.857 128.092 418.681 128.084 418.521 128.084H414.141V134.42ZM426.92 143V125.36H429.428V143H426.92ZM437.916 143.348C437.02 143.348 436.268 143.204 435.66 142.916C435.052 142.628 434.556 142.252 434.172 141.788C433.796 141.316 433.508 140.804 433.308 140.252C433.108 139.7 432.972 139.16 432.9 138.632C432.828 138.104 432.792 137.64 432.792 137.24V130.04H435.336V136.412C435.336 136.916 435.376 137.436 435.456 137.972C435.544 138.5 435.704 138.992 435.936 139.448C436.176 139.904 436.508 140.272 436.932 140.552C437.364 140.832 437.924 140.972 438.612 140.972C439.06 140.972 439.484 140.9 439.884 140.756C440.284 140.604 440.632 140.364 440.928 140.036C441.232 139.708 441.468 139.276 441.636 138.74C441.812 138.204 441.9 137.552 441.9 136.784L443.46 137.372C443.46 138.548 443.24 139.588 442.8 140.492C442.36 141.388 441.728 142.088 440.904 142.592C440.08 143.096 439.084 143.348 437.916 143.348ZM442.2 143V139.256H441.9V130.04H444.432V143H442.2ZM455.213 143C454.397 143.16 453.597 143.228 452.813 143.204C452.029 143.18 451.329 143.028 450.713 142.748C450.097 142.468 449.633 142.028 449.321 141.428C449.041 140.892 448.889 140.348 448.865 139.796C448.849 139.236 448.841 138.604 448.841 137.9V126.44H451.361V137.78C451.361 138.3 451.365 138.752 451.373 139.136C451.389 139.52 451.473 139.844 451.625 140.108C451.913 140.604 452.369 140.888 452.993 140.96C453.625 141.024 454.365 140.996 455.213 140.876V143ZM446.357 132.056V130.04H455.213V132.056H446.357ZM462.988 143.36C461.692 143.36 460.568 143.068 459.616 142.484C458.664 141.9 457.928 141.096 457.408 140.072C456.896 139.04 456.64 137.852 456.64 136.508C456.64 135.156 456.904 133.968 457.432 132.944C457.96 131.912 458.7 131.112 459.652 130.544C460.604 129.968 461.716 129.68 462.988 129.68C464.284 129.68 465.408 129.972 466.36 130.556C467.312 131.14 468.048 131.944 468.568 132.968C469.088 133.992 469.348 135.172 469.348 136.508C469.348 137.86 469.084 139.052 468.556 140.084C468.036 141.108 467.3 141.912 466.348 142.496C465.396 143.072 464.276 143.36 462.988 143.36ZM462.988 140.996C464.228 140.996 465.152 140.58 465.76 139.748C466.376 138.908 466.684 137.828 466.684 136.508C466.684 135.156 466.372 134.076 465.748 133.268C465.132 132.452 464.212 132.044 462.988 132.044C462.148 132.044 461.456 132.236 460.912 132.62C460.368 132.996 459.964 133.52 459.7 134.192C459.436 134.856 459.304 135.628 459.304 136.508C459.304 137.868 459.616 138.956 460.24 139.772C460.864 140.588 461.78 140.996 462.988 140.996ZM339.68 176V158.72H345.092C345.252 158.72 345.548 158.724 345.98 158.732C346.42 158.74 346.84 158.772 347.24 158.828C348.592 158.996 349.728 159.48 350.648 160.28C351.576 161.08 352.276 162.096 352.748 163.328C353.22 164.552 353.456 165.896 353.456 167.36C353.456 168.832 353.22 170.184 352.748 171.416C352.276 172.64 351.576 173.652 350.648 174.452C349.728 175.244 348.592 175.724 347.24 175.892C346.84 175.948 346.42 175.98 345.98 175.988C345.548 175.996 345.252 176 345.092 176H339.68ZM342.248 173.612H345.092C345.364 173.612 345.688 173.604 346.064 173.588C346.44 173.572 346.772 173.54 347.06 173.492C347.94 173.324 348.652 172.944 349.196 172.352C349.748 171.752 350.152 171.016 350.408 170.144C350.664 169.272 350.792 168.344 350.792 167.36C350.792 166.344 350.66 165.404 350.396 164.54C350.132 163.668 349.724 162.94 349.172 162.356C348.628 161.764 347.924 161.388 347.06 161.228C346.772 161.172 346.436 161.14 346.052 161.132C345.676 161.116 345.356 161.108 345.092 161.108H342.248V173.612ZM361.998 176.36C360.71 176.36 359.578 176.08 358.602 175.52C357.634 174.952 356.878 174.164 356.334 173.156C355.798 172.14 355.53 170.964 355.53 169.628C355.53 168.212 355.794 166.984 356.322 165.944C356.858 164.904 357.602 164.1 358.554 163.532C359.506 162.964 360.614 162.68 361.878 162.68C363.198 162.68 364.322 162.988 365.25 163.604C366.178 164.212 366.87 165.08 367.326 166.208C367.79 167.336 367.974 168.676 367.878 170.228H365.37V169.316C365.354 167.812 365.066 166.7 364.506 165.98C363.954 165.26 363.11 164.9 361.974 164.9C360.718 164.9 359.774 165.296 359.142 166.088C358.51 166.88 358.194 168.024 358.194 169.52C358.194 170.944 358.51 172.048 359.142 172.832C359.774 173.608 360.686 173.996 361.878 173.996C362.662 173.996 363.338 173.82 363.906 173.468C364.482 173.108 364.93 172.596 365.25 171.932L367.71 172.712C367.206 173.872 366.442 174.772 365.418 175.412C364.394 176.044 363.254 176.36 361.998 176.36ZM357.378 170.228V168.272H366.63V170.228H357.378ZM375.527 176.348C373.951 176.348 372.667 176 371.675 175.304C370.683 174.608 370.075 173.628 369.851 172.364L372.419 171.968C372.579 172.64 372.947 173.172 373.523 173.564C374.107 173.948 374.831 174.14 375.695 174.14C376.479 174.14 377.091 173.98 377.531 173.66C377.979 173.34 378.203 172.9 378.203 172.34C378.203 172.012 378.123 171.748 377.963 171.548C377.811 171.34 377.487 171.144 376.991 170.96C376.495 170.776 375.739 170.548 374.723 170.276C373.611 169.988 372.727 169.68 372.071 169.352C371.423 169.016 370.959 168.628 370.679 168.188C370.407 167.74 370.271 167.2 370.271 166.568C370.271 165.784 370.479 165.1 370.895 164.516C371.311 163.932 371.895 163.48 372.647 163.16C373.407 162.84 374.295 162.68 375.311 162.68C376.303 162.68 377.187 162.836 377.963 163.148C378.739 163.46 379.367 163.904 379.847 164.48C380.327 165.048 380.615 165.716 380.711 166.484L378.143 166.952C378.055 166.328 377.763 165.836 377.267 165.476C376.771 165.116 376.127 164.92 375.335 164.888C374.575 164.856 373.959 164.984 373.487 165.272C373.015 165.552 372.779 165.94 372.779 166.436C372.779 166.724 372.867 166.968 373.043 167.168C373.227 167.368 373.579 167.56 374.099 167.744C374.619 167.928 375.387 168.148 376.403 168.404C377.491 168.684 378.355 168.996 378.995 169.34C379.635 169.676 380.091 170.08 380.363 170.552C380.643 171.016 380.783 171.58 380.783 172.244C380.783 173.524 380.315 174.528 379.379 175.256C378.451 175.984 377.167 176.348 375.527 176.348ZM383.678 160.916V158.48H386.186V160.916H383.678ZM383.678 176V163.04H386.186V176H383.678ZM395.129 182.12C394.433 182.12 393.757 182.012 393.101 181.796C392.453 181.58 391.861 181.26 391.325 180.836C390.789 180.42 390.345 179.904 389.993 179.288L392.309 178.112C392.589 178.664 392.989 179.068 393.509 179.324C394.029 179.58 394.577 179.708 395.153 179.708C395.865 179.708 396.473 179.58 396.977 179.324C397.481 179.076 397.861 178.7 398.117 178.196C398.381 177.692 398.509 177.068 398.501 176.324V172.7H398.801V163.04H401.021V176.348C401.021 176.692 401.009 177.02 400.985 177.332C400.961 177.644 400.917 177.956 400.853 178.268C400.669 179.14 400.317 179.86 399.797 180.428C399.285 180.996 398.629 181.42 397.829 181.7C397.037 181.98 396.137 182.12 395.129 182.12ZM394.937 176.36C393.729 176.36 392.685 176.06 391.805 175.46C390.933 174.86 390.257 174.044 389.777 173.012C389.305 171.972 389.069 170.804 389.069 169.508C389.069 168.204 389.309 167.04 389.789 166.016C390.269 164.984 390.949 164.172 391.829 163.58C392.717 162.98 393.769 162.68 394.985 162.68C396.209 162.68 397.237 162.98 398.069 163.58C398.909 164.172 399.541 164.984 399.965 166.016C400.397 167.048 400.613 168.212 400.613 169.508C400.613 170.804 400.397 171.968 399.965 173C399.533 174.032 398.897 174.852 398.057 175.46C397.217 176.06 396.177 176.36 394.937 176.36ZM395.285 174.092C396.109 174.092 396.781 173.896 397.301 173.504C397.821 173.112 398.201 172.572 398.441 171.884C398.681 171.196 398.801 170.404 398.801 169.508C398.801 168.612 398.677 167.82 398.429 167.132C398.189 166.444 397.813 165.908 397.301 165.524C396.797 165.14 396.153 164.948 395.369 164.948C394.537 164.948 393.853 165.152 393.317 165.56C392.781 165.968 392.381 166.516 392.117 167.204C391.861 167.892 391.733 168.66 391.733 169.508C391.733 170.364 391.861 171.14 392.117 171.836C392.381 172.524 392.773 173.072 393.293 173.48C393.821 173.888 394.485 174.092 395.285 174.092ZM413.487 176V169.628C413.487 169.124 413.443 168.608 413.355 168.08C413.275 167.544 413.115 167.048 412.875 166.592C412.643 166.136 412.311 165.768 411.879 165.488C411.455 165.208 410.899 165.068 410.211 165.068C409.763 165.068 409.339 165.144 408.939 165.296C408.539 165.44 408.187 165.676 407.883 166.004C407.587 166.332 407.351 166.764 407.175 167.3C407.007 167.836 406.923 168.488 406.923 169.256L405.363 168.668C405.363 167.492 405.583 166.456 406.023 165.56C406.463 164.656 407.095 163.952 407.919 163.448C408.743 162.944 409.739 162.692 410.907 162.692C411.803 162.692 412.555 162.836 413.163 163.124C413.771 163.412 414.263 163.792 414.639 164.264C415.023 164.728 415.315 165.236 415.515 165.788C415.715 166.34 415.851 166.88 415.923 167.408C415.995 167.936 416.031 168.4 416.031 168.8V176H413.487ZM404.379 176V163.04H406.623V166.784H406.923V176H404.379ZM430.225 176.36C428.985 176.36 427.865 176.148 426.865 175.724C425.873 175.292 425.053 174.68 424.405 173.888C423.765 173.088 423.349 172.14 423.157 171.044L425.773 170.648C426.037 171.704 426.589 172.528 427.429 173.12C428.269 173.704 429.249 173.996 430.369 173.996C431.065 173.996 431.705 173.888 432.289 173.672C432.873 173.448 433.341 173.132 433.693 172.724C434.053 172.308 434.233 171.812 434.233 171.236C434.233 170.924 434.177 170.648 434.065 170.408C433.961 170.168 433.813 169.96 433.621 169.784C433.437 169.6 433.209 169.444 432.937 169.316C432.673 169.18 432.381 169.064 432.061 168.968L427.633 167.66C427.201 167.532 426.761 167.368 426.313 167.168C425.865 166.96 425.453 166.692 425.077 166.364C424.709 166.028 424.409 165.616 424.177 165.128C423.945 164.632 423.829 164.032 423.829 163.328C423.829 162.264 424.101 161.364 424.645 160.628C425.197 159.884 425.941 159.324 426.877 158.948C427.813 158.564 428.861 158.372 430.021 158.372C431.189 158.388 432.233 158.596 433.153 158.996C434.081 159.396 434.849 159.972 435.457 160.724C436.073 161.468 436.497 162.372 436.729 163.436L434.041 163.892C433.921 163.244 433.665 162.688 433.273 162.224C432.881 161.752 432.401 161.392 431.833 161.144C431.265 160.888 430.649 160.756 429.985 160.748C429.345 160.732 428.757 160.828 428.221 161.036C427.693 161.244 427.269 161.536 426.949 161.912C426.637 162.288 426.481 162.72 426.481 163.208C426.481 163.688 426.621 164.076 426.901 164.372C427.181 164.668 427.525 164.904 427.933 165.08C428.349 165.248 428.761 165.388 429.169 165.5L432.361 166.4C432.761 166.512 433.213 166.664 433.717 166.856C434.229 167.04 434.721 167.3 435.193 167.636C435.673 167.972 436.069 168.42 436.381 168.98C436.693 169.532 436.849 170.228 436.849 171.068C436.849 171.94 436.673 172.708 436.321 173.372C435.969 174.028 435.485 174.58 434.869 175.028C434.261 175.468 433.557 175.8 432.757 176.024C431.957 176.248 431.113 176.36 430.225 176.36ZM440.924 181.76L443.432 174.932L443.468 176.948L437.816 163.04H440.432L444.656 173.78H443.888L447.92 163.04H450.464L443.312 181.76H440.924ZM457.3 176.348C455.724 176.348 454.44 176 453.448 175.304C452.456 174.608 451.848 173.628 451.624 172.364L454.192 171.968C454.352 172.64 454.72 173.172 455.296 173.564C455.88 173.948 456.604 174.14 457.468 174.14C458.252 174.14 458.864 173.98 459.304 173.66C459.752 173.34 459.976 172.9 459.976 172.34C459.976 172.012 459.896 171.748 459.736 171.548C459.584 171.34 459.26 171.144 458.764 170.96C458.268 170.776 457.512 170.548 456.496 170.276C455.384 169.988 454.5 169.68 453.844 169.352C453.196 169.016 452.732 168.628 452.452 168.188C452.18 167.74 452.044 167.2 452.044 166.568C452.044 165.784 452.252 165.1 452.668 164.516C453.084 163.932 453.668 163.48 454.42 163.16C455.18 162.84 456.068 162.68 457.084 162.68C458.076 162.68 458.96 162.836 459.736 163.148C460.512 163.46 461.14 163.904 461.62 164.48C462.1 165.048 462.388 165.716 462.484 166.484L459.916 166.952C459.828 166.328 459.536 165.836 459.04 165.476C458.544 165.116 457.9 164.92 457.108 164.888C456.348 164.856 455.732 164.984 455.26 165.272C454.788 165.552 454.552 165.94 454.552 166.436C454.552 166.724 454.64 166.968 454.816 167.168C455 167.368 455.352 167.56 455.872 167.744C456.392 167.928 457.16 168.148 458.176 168.404C459.264 168.684 460.128 168.996 460.768 169.34C461.408 169.676 461.864 170.08 462.136 170.552C462.416 171.016 462.556 171.58 462.556 172.244C462.556 173.524 462.088 174.528 461.152 175.256C460.224 175.984 458.94 176.348 457.3 176.348ZM472.627 176C471.811 176.16 471.011 176.228 470.227 176.204C469.443 176.18 468.743 176.028 468.127 175.748C467.511 175.468 467.047 175.028 466.735 174.428C466.455 173.892 466.303 173.348 466.279 172.796C466.263 172.236 466.255 171.604 466.255 170.9V159.44H468.775V170.78C468.775 171.3 468.779 171.752 468.787 172.136C468.803 172.52 468.887 172.844 469.039 173.108C469.327 173.604 469.783 173.888 470.407 173.96C471.039 174.024 471.779 173.996 472.627 173.876V176ZM463.771 165.056V163.04H472.627V165.056H463.771ZM480.522 176.36C479.234 176.36 478.102 176.08 477.126 175.52C476.158 174.952 475.402 174.164 474.858 173.156C474.322 172.14 474.054 170.964 474.054 169.628C474.054 168.212 474.318 166.984 474.846 165.944C475.382 164.904 476.126 164.1 477.078 163.532C478.03 162.964 479.138 162.68 480.402 162.68C481.722 162.68 482.846 162.988 483.774 163.604C484.702 164.212 485.394 165.08 485.85 166.208C486.314 167.336 486.498 168.676 486.402 170.228H483.894V169.316C483.878 167.812 483.59 166.7 483.03 165.98C482.478 165.26 481.634 164.9 480.498 164.9C479.242 164.9 478.298 165.296 477.666 166.088C477.034 166.88 476.718 168.024 476.718 169.52C476.718 170.944 477.034 172.048 477.666 172.832C478.298 173.608 479.21 173.996 480.402 173.996C481.186 173.996 481.862 173.82 482.43 173.468C483.006 173.108 483.454 172.596 483.774 171.932L486.234 172.712C485.73 173.872 484.966 174.772 483.942 175.412C482.918 176.044 481.778 176.36 480.522 176.36ZM475.902 170.228V168.272H485.154V170.228H475.902ZM504.271 176L504.283 167.924C504.283 166.988 504.043 166.26 503.563 165.74C503.083 165.212 502.451 164.948 501.667 164.948C501.187 164.948 500.747 165.06 500.346 165.284C499.955 165.5 499.635 165.828 499.387 166.268C499.147 166.7 499.027 167.244 499.027 167.9L497.815 167.288C497.799 166.376 497.991 165.576 498.391 164.888C498.799 164.2 499.351 163.668 500.047 163.292C500.743 162.908 501.523 162.716 502.387 162.716C503.787 162.716 504.871 163.136 505.639 163.976C506.407 164.816 506.791 165.932 506.791 167.324L506.779 176H504.271ZM488.731 176V163.04H490.963V166.784H491.251V176H488.731ZM496.507 176L496.519 167.972C496.519 167.028 496.279 166.288 495.799 165.752C495.327 165.216 494.691 164.948 493.891 164.948C493.099 164.948 492.459 165.22 491.971 165.764C491.491 166.308 491.251 167.02 491.251 167.9L490.051 167.132C490.051 166.284 490.255 165.528 490.663 164.864C491.071 164.2 491.623 163.676 492.319 163.292C493.015 162.908 493.803 162.716 494.683 162.716C495.603 162.716 496.387 162.912 497.035 163.304C497.683 163.688 498.175 164.228 498.511 164.924C498.855 165.62 499.027 166.428 499.027 167.348L499.015 176H496.507ZM520.387 176.36C519.419 176.36 518.515 176.22 517.675 175.94C516.835 175.652 516.131 175.204 515.563 174.596C515.123 174.108 514.795 173.572 514.579 172.988C514.371 172.396 514.255 171.768 514.231 171.104C514.231 170.456 514.323 169.828 514.507 169.22C514.699 168.604 514.999 168.056 515.407 167.576C515.591 167.352 515.795 167.16 516.019 167C516.243 166.832 516.467 166.684 516.691 166.556C516.179 165.996 515.791 165.464 515.527 164.96C515.263 164.448 515.131 163.844 515.131 163.148C515.131 162.172 515.387 161.296 515.899 160.52C516.411 159.736 517.111 159.172 517.999 158.828C518.407 158.66 518.823 158.548 519.247 158.492C519.671 158.428 520.083 158.396 520.483 158.396C521.203 158.396 521.899 158.5 522.571 158.708C523.243 158.916 523.819 159.256 524.299 159.728C524.603 160.008 524.859 160.324 525.067 160.676C525.283 161.028 525.447 161.388 525.559 161.756L523.087 162.332C522.951 161.948 522.727 161.624 522.415 161.36C522.151 161.128 521.843 160.972 521.491 160.892C521.147 160.804 520.803 160.76 520.459 160.76C519.891 160.76 519.379 160.868 518.923 161.084C518.507 161.284 518.195 161.56 517.987 161.912C517.779 162.256 517.675 162.672 517.675 163.16C517.675 163.592 517.751 163.94 517.903 164.204C518.055 164.468 518.259 164.744 518.515 165.032C518.667 165.2 518.847 165.38 519.055 165.572C519.271 165.764 519.491 165.964 519.715 166.172L524.419 170.552C524.435 170.376 524.447 170.188 524.455 169.988C524.463 169.788 524.467 169.596 524.467 169.412L524.455 167.168H526.699V170.132C526.699 170.636 526.683 171.092 526.651 171.5C526.627 171.9 526.579 172.228 526.507 172.484L528.667 174.488L527.047 176.228L525.307 174.572C524.939 174.94 524.527 175.252 524.071 175.508C523.615 175.756 523.155 175.94 522.691 176.06C522.299 176.18 521.911 176.26 521.527 176.3C521.151 176.34 520.771 176.36 520.387 176.36ZM520.459 173.96C520.779 173.96 521.075 173.944 521.347 173.912C521.619 173.872 521.879 173.8 522.127 173.696C522.463 173.56 522.735 173.42 522.943 173.276C523.159 173.132 523.339 172.992 523.483 172.856L518.563 168.344C518.315 168.432 518.083 168.548 517.867 168.692C517.659 168.828 517.479 168.988 517.327 169.172C517.143 169.404 517.003 169.676 516.907 169.988C516.819 170.292 516.779 170.62 516.787 170.972C516.787 171.356 516.847 171.708 516.967 172.028C517.095 172.34 517.259 172.62 517.459 172.868C517.779 173.252 518.223 173.532 518.791 173.708C519.367 173.876 519.923 173.96 520.459 173.96ZM542.295 176.36C540.943 176.36 539.747 176.084 538.707 175.532C537.675 174.972 536.867 174.192 536.283 173.192C535.699 172.184 535.407 171 535.407 169.64V158.732L537.951 158.72V169.508C537.951 170.244 538.075 170.892 538.323 171.452C538.571 172.012 538.903 172.48 539.319 172.856C539.735 173.232 540.199 173.516 540.711 173.708C541.231 173.9 541.759 173.996 542.295 173.996C542.839 173.996 543.367 173.9 543.879 173.708C544.399 173.508 544.867 173.22 545.283 172.844C545.699 172.468 546.027 172 546.267 171.44C546.515 170.88 546.639 170.236 546.639 169.508V158.72H549.183V169.64C549.183 170.992 548.891 172.172 548.307 173.18C547.723 174.188 546.911 174.972 545.871 175.532C544.839 176.084 543.647 176.36 542.295 176.36ZM552.779 176V158.72H555.287V176H552.779ZM563.696 176V158.72H566.204V166.784L573.44 158.72H576.56L568.916 167.156L577.124 176H573.908L566.204 167.744V176H563.696ZM579.053 160.916V158.48H581.561V160.916H579.053ZM579.053 176V163.04H581.561V176H579.053ZM592.58 176C591.764 176.16 590.964 176.228 590.18 176.204C589.396 176.18 588.696 176.028 588.08 175.748C587.464 175.468 587 175.028 586.688 174.428C586.408 173.892 586.256 173.348 586.232 172.796C586.216 172.236 586.208 171.604 586.208 170.9V159.44H588.728V170.78C588.728 171.3 588.732 171.752 588.74 172.136C588.756 172.52 588.84 172.844 588.992 173.108C589.28 173.604 589.736 173.888 590.36 173.96C590.992 174.024 591.732 173.996 592.58 173.876V176ZM583.724 165.056V163.04H592.58V165.056H583.724Z" fill="black"/>
</svg>
